<svg xmlns="http://www.w3.org/2000/svg" width="45" height="27" viewBox="0 0 45 27">
  <g id="Group_6" data-name="Group 6" transform="translate(-1342 -736.803)">
    <path id="Path_3" data-name="Path 3" d="M1300,758.5a2.5,2.5,0,0,1,2.5-2.5h40a2.5,2.5,0,0,1,0,5h-40A2.5,2.5,0,0,1,1300,758.5Z" transform="translate(42 -19.197)" fill="#2b2b2b"/>
    <path id="Path_4" data-name="Path 4" d="M1300,769.5a2.5,2.5,0,0,1,2.5-2.5h40a2.5,2.5,0,0,1,0,5h-40A2.5,2.5,0,0,1,1300,769.5Z" transform="translate(42 -19.197)" fill="#2b2b2b"/>
    <path id="Path_5" data-name="Path 5" d="M1300,780.5a2.5,2.5,0,0,1,2.5-2.5h40a2.5,2.5,0,0,1,0,5h-40A2.5,2.5,0,0,1,1300,780.5Z" transform="translate(42 -19.197)" fill="#2b2b2b"/>
  </g>
</svg>
