<svg xmlns="http://www.w3.org/2000/svg" width="52" height="58.492" viewBox="0 0 52 58.492">
  <path id="Path_8" data-name="Path 8" d="M1163.37,425.2c3.61,2.082,5.41,3.122,6.09,4.442a5.041,5.041,0,0,1,0,4.54c-.68,1.32-2.48,2.36-6.08,4.442l-33.75,19.485c-3.61,2.082-5.41,3.122-6.89,3.045a4.993,4.993,0,0,1-3.93-2.27c-.81-1.242-.81-3.324-.81-7.486V412.423c0-4.162,0-6.244.81-7.486a4.993,4.993,0,0,1,3.93-2.27c1.48-.077,3.28.963,6.88,3.045Z" transform="translate(-1118 -402.663)" fill="#2b2b2b"/>
</svg>
