<svg xmlns="http://www.w3.org/2000/svg" width="61.252" height="43.749" viewBox="0 0 61.252 43.749">
  <path id="Path_9" data-name="Path 9" d="M1138,594.029c.01-3.808.09-5.82.99-7.023a4.98,4.98,0,0,1,3.44-1.986c1.64-.19,3.64.966,7.65,3.278l20.09,11.605c4.01,2.312,6.01,3.468,6.67,4.986a4.984,4.984,0,0,1,0,3.971c-.66,1.518-2.66,2.674-6.67,4.986l-20.09,11.6c-4.01,2.312-6.01,3.468-7.65,3.278a4.976,4.976,0,0,1-3.44-1.986c-.9-1.2-.98-3.215-.99-7.023l-9.92,5.731c-4.01,2.312-6.01,3.468-7.65,3.278a4.976,4.976,0,0,1-3.44-1.986c-.99-1.327-.99-3.639-.99-8.264V595.27c0-4.624,0-6.937.99-8.264a4.98,4.98,0,0,1,3.44-1.986c1.64-.19,3.64.966,7.65,3.278Z" transform="translate(-1116 -585)" fill="#2b2b2b" fill-rule="evenodd"/>
</svg>
